<?xml version="1.0" encoding="utf-8"?>
<svg style="display: none;" xmlns="http://www.w3.org/2000/svg" xmlns:xlink="http://www.w3.org/1999/xlink">
    <symbol id="translate" viewBox="0 0 32 32" xmlns="http://www.w3.org/2000/svg">
        <path d="M15.48 20h.04c.87 0 1.58-.69 1.6-1.56.02-.88-.68-1.62-1.56-1.64-2.14-.05-4-.47-5.48-1.08 1.46-2.23 2.42-5.19 2.66-8.52h1.66c.88 0 1.6-.72 1.6-1.6S15.28 4 14.4 4h-1.6V2.4c0-.88-.72-1.6-1.6-1.6s-1.6.72-1.6 1.6V4H3.2c-.88 0-1.6.72-1.6 1.6s.72 1.6 1.6 1.6h6.32c-.23 2.67-1.02 5.05-2.14 6.78-.61-.64-.98-1.32-.98-1.98 0-.88-.72-1.6-1.6-1.6s-1.6.72-1.6 1.6c0 1.58.7 3.04 1.91 4.27-.6.34-1.24.53-1.91.53-.88 0-1.6.72-1.6 1.6S2.32 20 3.2 20c1.71 0 3.29-.64 4.67-1.77 2.07 1.04 4.68 1.69 7.61 1.76ZM30.26 28.95l-6.4-14.4c-.26-.58-.83-.95-1.46-.95s-1.21.37-1.46.95l-6.4 14.4c-.36.81 0 1.75.81 2.11.81.36 1.75 0 2.11-.81l1-2.25h7.88l1 2.25c.26.6.85.95 1.46.95.22 0 .44-.04.65-.14.81-.36 1.17-1.3.81-2.11ZM19.88 24.8l2.52-5.66 2.52 5.66h-5.03Z" style="fill-rule:nonzero;"/>
    </symbol>
</svg>
